<?xml version="1.0" encoding="iso-8859-1"?>
<!-- Generator: Adobe Illustrator 19.0.0, SVG Export Plug-In . SVG Version: 6.00 Build 0)  -->
<svg version="1.1" id="Capa_1" xmlns="http://www.w3.org/2000/svg" xmlns:xlink="http://www.w3.org/1999/xlink" x="0px" y="0px"
	 viewBox="0 0 512 512" style="enable-background:new 0 0 512 512;" xml:space="preserve">
<g>
	<g>
		<path d="M499.483,211.638l12.517-2.1V96H0v113.538l12.517,2.101C34.236,215.284,50,233.941,50,256s-15.764,40.716-37.483,44.362
			L0,302.462V416h512V302.462l-12.517-2.101C477.764,296.716,462,278.059,462,256C462,233.941,477.764,215.284,499.483,211.638z
			 M482,326.735V386H372v-24.5h-30V386H30v-59.265C59.609,316.364,80,288.38,80,256s-20.391-60.364-50-70.735V126h312v24.5h30V126
			h110v59.265c-29.609,10.371-50,38.354-50,70.735S452.391,316.364,482,326.735z"/>
	</g>
</g>
<g>
	<g>
		<rect x="342" y="271.5" width="30" height="60"/>
	</g>
</g>
<g>
	<g>
		<rect x="342" y="180.5" width="30" height="60"/>
	</g>
</g>
<g>
</g>
<g>
</g>
<g>
</g>
<g>
</g>
<g>
</g>
<g>
</g>
<g>
</g>
<g>
</g>
<g>
</g>
<g>
</g>
<g>
</g>
<g>
</g>
<g>
</g>
<g>
</g>
<g>
</g>
</svg>
