<?xml version="1.0" encoding="utf-8"?>
<!-- Generator: Adobe Illustrator 24.1.2, SVG Export Plug-In . SVG Version: 6.00 Build 0)  -->
<svg version="1.1" id="background_screening" xmlns="http://www.w3.org/2000/svg" xmlns:xlink="http://www.w3.org/1999/xlink"
	 x="0px" y="0px" viewBox="0 0 225 225" style="enable-background:new 0 0 225 225;" xml:space="preserve">
<style type="text/css">
	.st0{fill:#FFFFFF;}
	.st1{fill:#DF6A2E;}
</style>
<circle class="st0" cx="112.5" cy="112.5" r="112.5"/>
<g id="g5839_1_" transform="translate(3.3046724e-8,-180)">
	<g id="path5295_3_">
		<path class="st1" d="M114.4,357c-3.8,0-8.3-1.3-9.7-4.8c-1.1-2.9,0.2-6.1,3.8-9.6c-0.1-2.6-0.2-5.1-0.7-7.3
			c-3.4-0.3-5.6-0.9-8.6-1.9c-2.9,2.1-4.3,4.5-5.8,7c-0.2,0.4-0.5,0.8-0.7,1.2c0.6,2.8,0.3,5-0.9,6.6c-1.1,1.5-3,2.4-5.4,2.4
			c-4.7,0-10.8-3.4-11.5-7.7c-0.3-1.8,0.1-5,5.8-7.2c2-4,3-7.6,3-11.1c-1.9-1.7-3.6-3.7-5.2-5.8c-4.3,0.2-7.4,1.4-10.5,2.7
			c-0.5,6.7-4.2,7.5-5.8,7.5c-5.1,0-11.8-7.5-11.8-13.2c0-1.9,0.7-3.5,2.1-4.6c1.8-1.5,4.6-2,8.5-1.5l0.4-0.3
			c3.7-2.2,7.2-4.3,9.5-7.6c-0.7-2.9-1.1-5.8-1.4-8.7c-2.5-2.8-5.7-3.9-9.2-4.8c-4.7,2.3-8.7,1.7-10.7-1.4c-1-1.4-1.5-3.4-1.5-5.6
			c0-6,3.4-12.3,8.4-12.3c2.7,0,5.3,1.8,7.6,5.5c4,0.3,7-0.1,9.2-1.2c1-2,2.2-4,3.5-5.9c-1.8-4.2-3.9-7.4-6.3-10.1
			c-3.7,0.2-6.2-0.2-8-1.3c-1.7-1-2.6-2.6-2.6-4.4c0-6,10.1-13.7,16.3-13.7c2.5,0,3.9,1.1,4.7,2.1c1.4,1.8,1.7,4.6,0.9,8.4
			c2.2,2.5,4.9,4.7,8.1,6.7c2.5-1.7,4.8-3,7.8-4.1c0.1-2.5,0.1-5.1-0.4-7.5c-5-2.4-7.3-5.1-6.6-8.3c1-4.8,8.9-7.3,14.2-7.3
			c4,0,6.7,1.3,7.7,3.6c1.1,2.5,0.1,5.5-3,9.1c1.1,3.3,2.5,4.9,4.1,6.6c0.2,0.2,0.4,0.4,0.5,0.6c3.4-0.1,6.9,0.4,10.3,1.2
			c3.1-2.9,5.2-5.4,6.4-8c-1.5-3.7-1.6-6.7-0.2-8.9c1.2-2,3.6-3,6.6-3c5.9,0,13.2,3.8,13.9,8.8c0.4,2.6-0.9,6.3-8.9,8.8
			c-1.3,3-1.7,6.3-2.1,9.9c2.9,2.2,5.5,4.8,7.8,7.6c3,0.5,6.7-0.3,10.5-1.3c1.9-7,5.1-8.5,7.5-8.5c5.8,0,10.4,8.7,10.4,14.4
			c0,1.9-0.5,3.5-1.5,4.7c-0.8,1-2.3,2.2-5,2.2c-1.6,0-3.4-0.4-5.4-1.2c-4.3,2.3-6.3,4.2-8.2,6.9c1,4.5,1.2,9.6,0.6,14.3
			c2,1.8,4.3,3.9,7.3,6.2c4.4-1.9,8-1.3,9.9,1.5c0.9,1.3,1.4,3.1,1.4,5.2c0,5.6-3.4,11.7-8.3,11.7c-2.7,0-5.2-1.8-7.3-5.4
			c-2.8-0.6-6-1-9.2-0.6c-2,3.6-4.5,6.8-7.4,9.6c0.6,2.8,2.4,5.1,4.3,7.2c1.3-0.2,2.5-0.3,3.6-0.3c7,0,7.5,4.7,7.5,6.1
			c0,5.6-7,14.1-13.1,14.1c-2.5,0-6.7-1.4-6.9-10.4c-2.7-3-5.3-5.7-9-7.8c-2.4,1-5,1.7-7.7,2.2c-0.5,2.5-1,5.2-1.4,7.9
			c4.1,4,4.2,7.1,3.4,9C123,355.7,118.1,357,114.4,357z M98.9,328.9c0.2,0,0.5,0,0.7,0.1c3.7,1.3,5.8,1.8,10,2.1
			c0.9,0.1,1.6,0.6,1.9,1.5c1.1,3.3,1.2,6.9,1.3,10.4l0,0.4c0,0.6-0.2,1.2-0.7,1.7c-3,2.7-3.7,4.7-3.4,5.5c0.5,1.2,2.9,2.1,5.7,2.1
			c3.2,0,5.6-1.1,6-2.2c0.4-1.1-0.8-3-3.1-5.1c-0.5-0.5-0.8-1.2-0.7-1.9l0.1-0.6c0.5-3.4,1.1-6.9,1.8-10.1c0.2-0.9,0.9-1.5,1.8-1.6
			c3.3-0.5,6.3-1.3,9.1-2.5c0.6-0.3,1.3-0.2,1.8,0.1c5.1,2.6,8.4,6.1,11.7,9.8c0.3,0.4,0.5,0.9,0.5,1.4c0,2.1,0.3,7,2.6,7
			c1.5,0,3.7-1.4,5.6-3.5c1.9-2.1,3.2-4.7,3.2-6.4c0-0.6,0-1.9-3.2-1.9c-1.1,0-2.4,0.2-3.9,0.5c-0.7,0.2-1.5-0.1-2-0.6
			c-2.8-3-5.9-6.6-6.4-11.5c-0.1-0.7,0.2-1.3,0.7-1.8c3.2-3,5.9-6.5,8-10.3c0.3-0.6,0.9-1,1.6-1.1c4.5-0.6,8.9,0,12.7,0.7
			c0.6,0.1,1.1,0.5,1.4,1.1c1.4,2.5,2.9,4.1,4.1,4.1c1.9,0,4-4,4-7.5c0-1.2-0.2-2.1-0.7-2.7c-0.3-0.4-0.7-0.8-1.7-0.8
			c-0.7,0-2,0.2-4,1.2c-0.7,0.4-1.6,0.3-2.2-0.2c-4-2.9-6.6-5.2-9.6-8c-0.5-0.5-0.8-1.2-0.7-1.9c0.7-4.6,0.5-10.1-0.6-14.7
			c-0.1-0.6,0-1.2,0.3-1.7c2.5-3.7,5.1-6.5,11.2-9.6c0.6-0.3,1.2-0.3,1.8,0c2.3,1,3.8,1.2,4.6,1.2c1.2,0,1.5-0.4,1.7-0.6
			c0.3-0.4,0.5-1.1,0.5-2c0-4.5-3.8-10.2-6.1-10.2c-1,0-2.5,1.7-3.6,6.4c-0.2,0.8-0.8,1.4-1.5,1.6c-3.8,1-7.3,2-10.8,2
			c-1.3,0-2.5-0.1-3.7-0.4c-0.5-0.1-0.9-0.4-1.2-0.8c-2.4-3.1-5.2-5.9-8.4-8.2c-0.6-0.5-1-1.2-0.9-2l0.1-1.1c0.5-4.1,1-8.3,2.9-12.2
			c0.3-0.5,0.8-1,1.3-1.1c5.3-1.5,7-3.3,6.8-4.3c-0.3-2.1-5.4-5.1-9.7-5.1c-0.9,0-2.4,0.1-3,1.1c-0.6,1-0.3,3.1,0.9,5.7
			c0.3,0.5,0.3,1.2,0,1.7c-1.5,3.7-4.2,7.1-8.7,11.1c-0.5,0.5-1.3,0.7-2,0.5c-3.7-1-7.4-1.5-11.2-1.3c-0.7,0-1.3-0.3-1.7-0.7
			c-0.4-0.4-0.7-0.8-1.1-1.2c-1.9-2-4-4.4-5.4-9.5c-0.2-0.7,0-1.5,0.5-2c2.9-3.1,3.3-4.9,3.1-5.4c-0.2-0.4-1.4-1.1-3.8-1.1
			c-5,0-9.7,2.4-10,3.9c-0.1,0.6,0.8,2.1,5.2,3.9c0.6,0.3,1.1,0.8,1.2,1.5c0.8,3.4,0.8,6.8,0.7,10l0,1.1c0,0.9-0.6,1.7-1.5,2
			c-3.8,1.2-6.1,2.7-9.3,4.8c-0.7,0.5-1.6,0.5-2.3,0.1c-4.5-2.6-8.2-5.7-11-9.1c-0.4-0.5-0.6-1.2-0.4-1.9c1.1-4.1,0.3-5.5,0.1-5.8
			c-0.1-0.1-0.4-0.5-1.3-0.5c-4.5,0-12,6.4-12,9.4c0,0.2,0,0.4,0.5,0.7c0.5,0.3,1.7,0.7,4.3,0.7c0.7,0,1.4,0,2.3-0.1
			c0.6,0,1.3,0.2,1.7,0.6c3.4,3.4,6,7.6,8.3,13.2c0.3,0.7,0.2,1.5-0.3,2.1c-1.6,2.1-3,4.4-4.1,6.8c-0.2,0.4-0.5,0.7-0.8,0.9
			c-3.2,2-7.5,2.6-13.4,2c-0.7-0.1-1.3-0.5-1.6-1.1c-2.2-3.9-3.9-4.3-4.5-4.3c-2,0-4.2,4.2-4.2,8.1c0,1.3,0.3,2.5,0.7,3.2
			c0.4,0.6,1,0.9,1.8,0.9c0.7,0,2-0.2,4-1.3c0.5-0.3,1-0.3,1.5-0.2c4.5,1.1,9.1,2.6,12.7,7c0.3,0.3,0.4,0.8,0.5,1.2
			c0.2,3.2,0.7,6.4,1.5,9.6c0.1,0.6,0.1,1.2-0.3,1.7c-2.8,4.6-7.2,7.2-11.4,9.7l-1.1,0.6c-0.4,0.3-0.9,0.4-1.4,0.3
			c-1.1-0.2-2-0.3-2.8-0.3c-1.9,0-2.7,0.4-3,0.7c-0.2,0.2-0.5,0.5-0.5,1.3c0,3.6,5,8.9,7.6,8.9c1.5,0,1.6-3.9,1.6-4.7
			c0-0.8,0.5-1.6,1.3-2l0.3-0.1c3.9-1.7,7.9-3.4,14.1-3.5c0,0,0,0,0,0c0.7,0,1.4,0.3,1.8,0.9c1.8,2.5,3.7,4.8,5.9,6.6
			c0.4,0.4,0.7,1,0.7,1.6c0.1,4.9-1.1,9.6-3.9,14.9c-0.3,0.5-0.7,0.9-1.2,1c-2.4,0.8-3.9,1.9-3.8,2.8c0.3,1.7,4.1,4.1,7.2,4.1
			c0.5,0,1.5-0.1,1.9-0.7c0.5-0.6,0.5-2,0-3.8c-0.2-0.6-0.1-1.2,0.2-1.7c0.4-0.6,0.7-1.2,1.1-1.8c1.7-2.9,3.6-6.3,8-9.1
			C98.1,329.1,98.5,328.9,98.9,328.9z"/>
	</g>
	<g id="path5322_2_">
		<path class="st1" d="M125.3,315.4c-4.5,0-8.2-2.4-9.9-6.5c-2.4-5.7,0.3-11.3,6.8-14c1.9-0.8,3.8-1.2,5.6-1.2
			c4.3,0,7.6,2.2,9.3,6.1c2.4,5.8-0.3,11.9-6.6,14.6C128.8,315.1,127.1,315.4,125.3,315.4z M127.8,298c-1.2,0-2.6,0.3-3.9,0.9
			c-3.3,1.4-6.2,4.4-4.5,8.5c1,2.5,3.2,3.9,6,3.9c1.2,0,2.3-0.2,3.5-0.7c4-1.7,5.8-5.4,4.3-9C131.9,298.6,129.5,298,127.8,298z"/>
	</g>
	<g id="path5326_3_">
		<path class="st1" d="M96.9,303c-1,0-2-0.2-3-0.5c-2.6-0.9-4.6-2.6-5.7-4.8c-1-2-1.1-4.2-0.3-6.4c1.2-3.4,4.5-5.5,8.6-5.5
			c1.3,0,2.6,0.2,3.8,0.6c2.2,0.8,3.9,2.3,4.9,4.3c1,2.1,1.1,4.5,0.3,6.6C104.4,300.7,100.7,303,96.9,303z M96.5,290.1
			c-0.9,0-3.7,0.2-4.6,2.6c-0.4,1.1-0.3,2.1,0.1,3.1c0.6,1.2,1.7,2.1,3.2,2.6c0.5,0.2,1,0.3,1.6,0.3c2.2,0,4.2-1.4,4.7-2.8
			c0.4-1.1,0.3-2.3-0.2-3.3c-0.3-0.7-1-1.6-2.4-2.1C98.2,290.3,97.3,290.1,96.5,290.1z"/>
	</g>
	<g id="path5328_4_">
		<path class="st1" d="M119.4,285.6c-5.7,0-10-3.7-10.4-9c-0.5-5.7,3.6-10.2,9.8-10.8c6-0.6,10.9,3.3,11.6,8.8
			c0.3,2.4-0.5,4.8-2.1,6.8c-1.9,2.3-4.7,3.8-7.7,4.1C120.1,285.6,119.7,285.6,119.4,285.6z M119.8,270.1c-0.2,0-0.5,0-0.7,0
			c-3.2,0.3-6.2,2.3-5.9,6.2c0.3,3.8,3.5,5.1,6.1,5.1c0.3,0,0.5,0,0.8,0c1.8-0.2,3.6-1.1,4.7-2.5c0.9-1.1,1.4-2.4,1.2-3.6
			C125.7,272.2,123.2,270.1,119.8,270.1z"/>
	</g>
</g>
</svg>
