<svg id="Icons" height="512" viewBox="0 0 74 74" width="512" xmlns="http://www.w3.org/2000/svg"><path d="m61.8 26.8h-2.62v-2.62a1 1 0 0 0 -.78-1l-17.52-4a17.57 17.57 0 0 0 -7.77 0l-17.51 4a1 1 0 0 0 -.78 1v2.62h-2.62a10.2 10.2 0 0 0 0 20.4h2.62v1.19a1 1 0 0 0 .52.88 44.52 44.52 0 0 0 21.66 5.94 44.52 44.52 0 0 0 21.66-5.94 1 1 0 0 0 .52-.88v-1.19h2.62a10.2 10.2 0 1 0 0-20.4zm-47 18.4h-2.6a8.2 8.2 0 0 1 0-16.4h2.62zm7-16.14a1 1 0 0 1 1.2-.76 64.64 64.64 0 0 0 28.23 0 1 1 0 0 1 .44 2 67.14 67.14 0 0 1 -14.55 1.6 67.14 67.14 0 0 1 -14.55-1.6 1 1 0 0 1 -.72-1.24zm30.2 15.11a29.62 29.62 0 0 1 -14.52 3.94 32.87 32.87 0 0 1 -15.09-3.93 1 1 0 0 1 .91-1.78c9.59 4.92 18.92 4.92 27.73 0a1 1 0 0 1 1.36.39 1 1 0 0 1 -.39 1.38zm-.06-7.06a33.28 33.28 0 0 1 -14.44 3.35 37.38 37.38 0 0 1 -15-3.34 1 1 0 1 1 .8-1.83c9.65 4.21 19 4.22 27.83 0a1 1 0 0 1 1.33.47 1 1 0 0 1 -.54 1.35zm9.86 8.09h-2.62v-16.4h2.62a8.2 8.2 0 1 1 0 16.4z"/></svg>