<?xml version="1.0" encoding="UTF-8" ?>
<!DOCTYPE svg PUBLIC "-//W3C//DTD SVG 1.1//EN" "http://www.w3.org/Graphics/SVG/1.1/DTD/svg11.dtd">
<svg width="1000pt" height="1000pt" viewBox="0 0 1000 1000" version="1.1" xmlns="http://www.w3.org/2000/svg">
<g id="#ffffffff">
<path fill="#ffffff" opacity="1.00" d=" M 638.52 81.61 C 653.50 73.25 670.89 69.15 688.04 70.24 C 705.81 70.65 722.83 79.28 734.83 92.21 C 744.16 102.45 751.67 114.82 754.23 128.58 C 755.81 137.25 755.17 146.50 751.48 154.58 C 747.36 163.25 738.77 169.32 729.48 171.29 C 719.18 173.61 707.90 169.90 700.54 162.45 C 691.72 153.59 688.74 139.41 693.57 127.83 C 697.45 118.40 705.95 111.35 715.55 108.21 C 711.42 103.70 707.25 99.04 701.88 95.98 C 692.22 90.53 680.11 89.81 669.87 94.09 C 657.11 99.07 648.09 110.49 642.47 122.61 C 634.42 140.14 629.25 158.91 626.10 177.92 C 621.92 202.41 620.73 227.27 618.79 252.00 C 617.17 272.21 615.50 292.41 614.10 312.63 C 631.15 318.64 646.83 328.57 659.44 341.53 C 687.93 370.13 700.24 413.94 689.99 453.10 C 682.31 486.28 659.18 515.33 628.81 530.63 C 617.72 536.70 605.39 539.97 593.10 542.55 C 587.47 588.97 582.99 635.79 570.76 681.06 C 566.45 697.62 560.31 713.80 551.60 728.56 C 542.39 744.04 529.96 757.90 514.46 767.27 C 495.62 778.41 472.65 782.64 451.14 778.41 C 419.62 771.47 395.30 740.31 396.57 708.00 C 396.71 699.60 400.66 691.49 406.93 685.95 C 416.45 677.09 431.80 675.67 442.97 682.18 C 451.58 687.13 458.17 696.03 459.23 706.04 C 460.20 713.43 458.67 721.23 454.42 727.42 C 449.95 734.36 442.74 739.22 434.90 741.57 C 440.94 749.01 448.68 755.63 458.25 757.80 C 472.03 761.48 486.77 755.41 496.37 745.44 C 505.65 735.65 510.68 722.83 515.11 710.32 C 524.01 684.46 527.37 657.13 529.66 630.00 C 532.03 599.20 534.51 568.41 536.57 537.59 C 521.53 532.30 507.57 524.02 495.72 513.35 C 467.01 487.96 451.99 447.86 457.21 409.86 C 461.27 373.92 483.50 341.00 514.41 322.53 C 527.72 314.58 542.63 309.50 557.91 307.02 C 562.88 261.56 567.84 215.87 579.26 171.48 C 584.44 151.96 591.64 132.73 602.81 115.80 C 612.04 102.02 623.90 89.68 638.52 81.61 M 491.19 376.26 C 481.26 393.29 476.80 413.41 478.45 433.04 C 479.63 448.57 485.09 463.58 493.18 476.82 C 503.83 493.82 520.08 506.96 538.45 514.84 C 542.53 452.97 547.57 391.13 555.68 329.65 C 528.90 335.15 504.71 352.45 491.19 376.26 M 612.32 335.33 C 608.90 397.00 602.87 458.50 595.30 519.79 C 621.96 513.74 645.90 496.22 659.25 472.30 C 676.22 442.26 675.40 403.10 657.18 373.81 C 646.63 356.77 630.57 343.44 612.32 335.33 Z" />
<path fill="#ffffff" opacity="1.00" d=" M 120.76 835.66 C 126.92 835.25 133.08 834.80 139.24 834.41 C 139.36 858.80 139.06 883.20 139.39 907.58 C 141.64 909.77 145.40 908.50 148.26 909.05 C 148.25 910.79 148.25 912.54 148.25 914.30 C 139.09 913.96 129.91 913.75 120.75 914.32 C 120.75 912.54 120.75 910.78 120.75 909.02 C 123.76 908.96 126.96 909.33 129.70 907.80 C 129.75 886.95 129.82 866.09 129.67 845.25 C 129.62 840.54 123.95 841.21 120.74 840.90 C 120.74 839.15 120.75 837.40 120.76 835.66 Z" />
<path fill="#ffffff" opacity="1.00" d=" M 458.76 835.66 C 464.92 835.25 471.08 834.80 477.24 834.41 C 477.22 845.98 477.34 857.56 477.18 869.13 C 481.65 865.59 487.27 863.44 493.00 863.45 C 500.42 863.05 507.65 867.16 511.79 873.21 C 519.78 884.60 517.79 902.10 506.54 910.67 C 497.62 917.91 483.26 917.11 475.85 908.06 C 474.71 910.12 473.57 912.19 472.41 914.25 C 470.85 914.25 469.30 914.25 467.75 914.27 C 467.74 891.85 467.76 869.42 467.74 847.00 C 467.69 845.09 467.63 842.40 465.43 841.71 C 463.27 841.04 460.96 841.09 458.73 840.90 C 458.74 839.14 458.74 837.40 458.76 835.66 M 477.52 875.14 C 477.47 884.45 477.53 893.75 477.48 903.06 C 479.29 905.69 481.37 908.28 484.27 909.75 C 489.61 912.66 496.77 911.22 500.73 906.66 C 503.99 903.27 504.88 898.38 505.17 893.87 C 505.41 888.73 505.26 883.53 504.24 878.48 C 503.10 873.10 498.54 868.30 492.91 867.84 C 486.86 867.00 480.99 870.32 477.52 875.14 Z" />
<path fill="#ffffff" opacity="1.00" d=" M 523.53 835.64 C 529.60 835.25 535.68 834.82 541.75 834.42 C 541.78 856.96 541.76 879.50 541.76 902.04 C 541.75 904.10 541.93 906.16 542.10 908.23 C 544.94 908.87 547.86 908.95 550.77 909.07 C 550.75 910.81 550.74 912.55 550.74 914.30 C 541.66 913.96 532.56 913.75 523.49 914.32 C 523.48 912.55 523.48 910.79 523.47 909.03 C 526.32 908.84 529.46 909.44 532.06 907.97 C 532.56 897.65 531.96 887.29 532.50 876.97 C 532.09 866.29 532.35 855.60 532.20 844.92 C 532.06 840.42 526.49 841.35 523.44 840.88 C 523.47 839.13 523.49 837.38 523.53 835.64 Z" />
<path fill="#ffffff" opacity="1.00" d=" M 846.45 835.70 C 852.44 835.10 858.47 834.87 864.49 834.41 C 864.50 846.84 864.53 859.27 864.47 871.70 C 867.77 867.91 871.90 864.48 877.03 863.70 C 882.61 863.00 889.27 863.33 893.23 867.90 C 896.84 872.05 896.61 877.89 896.52 883.04 C 896.64 891.43 896.20 899.84 896.84 908.21 C 899.68 908.88 902.61 908.96 905.53 909.07 C 905.51 910.81 905.50 912.56 905.51 914.33 C 896.27 913.82 886.99 913.83 877.75 914.32 C 877.74 912.55 877.74 910.79 877.74 909.04 C 880.66 908.76 884.08 909.56 886.62 907.76 C 886.93 897.83 886.65 887.88 886.76 877.95 C 886.85 874.28 885.84 869.59 881.90 868.31 C 878.32 867.50 874.10 867.65 871.23 870.23 C 867.02 873.45 864.57 878.69 864.75 883.99 C 864.81 891.78 864.61 899.59 864.85 907.39 C 866.93 909.92 870.87 908.66 873.76 909.02 C 873.74 910.77 873.74 912.54 873.74 914.32 C 864.51 913.83 855.24 913.84 846.01 914.32 C 845.99 912.54 845.99 910.77 846.00 909.02 C 848.92 909.04 851.91 909.11 854.71 908.11 C 855.11 886.82 855.19 865.50 854.66 844.22 C 853.87 840.32 848.87 841.38 845.98 840.92 C 846.23 839.25 845.43 837.00 846.45 835.70 Z" />
<path fill="#ffffff" opacity="1.00" d=" M 51.09 839.63 C 48.45 839.95 48.11 835.18 51.02 835.76 C 71.97 835.68 92.93 835.78 113.88 835.71 C 114.59 837.01 114.88 838.46 114.77 839.95 C 114.75 845.65 114.73 851.36 114.76 857.07 C 113.79 857.49 112.82 857.92 111.84 858.34 C 109.54 855.37 110.39 851.09 107.73 848.28 C 102.77 841.48 93.91 839.63 85.97 839.74 C 83.08 839.70 78.38 839.05 77.87 843.01 C 77.50 852.55 77.45 862.11 77.51 871.66 C 81.54 871.17 85.96 870.94 89.23 868.23 C 93.03 865.16 94.25 860.08 94.66 855.44 C 94.76 853.57 96.87 852.65 98.31 853.98 C 99.00 866.24 98.92 878.55 98.37 890.82 C 97.42 892.58 94.73 891.72 94.69 889.86 C 94.33 886.60 93.63 883.20 91.34 880.71 C 88.00 876.68 82.42 875.96 77.52 875.61 C 77.50 885.08 77.47 894.56 77.53 904.04 C 77.76 905.75 77.36 907.90 78.81 909.19 C 81.97 910.57 85.54 909.98 88.88 910.40 C 90.86 911.01 90.80 914.30 88.60 914.44 C 76.12 914.57 63.63 914.50 51.15 914.47 C 49.20 914.73 48.49 912.70 49.24 911.17 C 51.96 909.28 55.95 911.09 58.49 908.79 C 58.84 907.57 59.00 906.34 58.99 905.10 C 59.34 884.34 59.54 863.55 58.84 842.80 C 58.63 839.02 53.65 840.19 51.09 839.63 M 104.73 839.72 C 106.87 841.26 108.90 842.94 110.76 844.81 C 110.74 843.11 110.73 841.43 110.73 839.75 C 108.73 839.74 106.73 839.74 104.73 839.72 M 62.72 839.73 C 63.61 844.77 63.14 849.91 63.26 855.01 C 63.05 863.30 63.70 871.59 63.44 879.89 C 62.85 890.01 63.83 900.18 62.81 910.27 C 66.58 910.23 70.34 910.28 74.11 910.19 C 72.88 903.51 73.34 896.70 73.25 889.96 C 73.32 877.97 73.07 865.98 73.49 854.00 C 73.77 849.25 72.73 844.30 74.45 839.74 C 70.54 839.75 66.63 839.76 62.72 839.73 M 88.86 873.43 C 90.85 874.64 92.71 876.04 94.52 877.52 C 94.49 874.75 94.49 871.99 94.53 869.23 C 92.73 870.74 90.85 872.16 88.86 873.43 Z" />
<path fill="#ffffff" opacity="1.00" d=" M 635.32 839.46 C 633.70 838.72 633.96 835.51 635.97 835.83 C 644.93 835.67 653.90 835.64 662.87 835.87 C 670.74 853.67 678.22 871.66 685.86 889.57 C 694.13 871.88 701.13 853.63 709.07 835.79 C 718.07 835.69 727.07 835.72 736.07 835.76 C 738.31 835.09 738.81 839.05 736.88 839.45 C 734.55 840.13 731.97 840.39 730.08 842.06 C 727.61 843.94 728.76 847.35 728.34 850.01 C 728.16 868.02 728.26 886.04 728.28 904.06 C 728.62 908.31 733.33 910.05 736.99 910.42 C 739.45 910.31 739.47 914.58 737.05 914.46 C 724.91 914.44 712.76 914.71 700.63 914.31 C 700.64 912.98 699.98 910.48 702.05 910.41 C 705.39 909.92 709.83 908.56 710.21 904.60 C 710.29 884.98 710.24 865.36 710.23 845.74 C 700.89 867.85 691.52 889.96 682.00 912.00 C 681.68 913.64 680.26 914.35 678.85 914.92 C 668.44 892.09 659.32 868.67 649.28 845.66 C 649.24 865.11 649.23 884.56 649.27 904.02 C 649.28 906.46 651.44 908.35 653.49 909.34 C 655.79 910.38 659.97 909.48 660.10 913.01 C 659.77 913.35 659.10 914.04 658.76 914.39 C 651.13 914.62 643.48 914.50 635.85 914.45 C 633.57 914.45 633.56 910.21 636.01 910.36 C 639.54 909.97 643.91 908.12 644.23 904.08 C 644.28 883.02 644.23 861.95 644.25 840.88 C 641.29 840.28 638.30 839.91 635.32 839.46 M 650.68 839.71 C 651.75 841.53 652.72 843.42 653.55 845.38 C 662.33 865.79 671.08 886.22 679.84 906.64 C 681.41 902.95 682.91 899.22 684.67 895.61 C 681.38 891.09 679.84 885.61 677.49 880.59 C 671.85 866.94 666.09 853.33 660.29 839.75 C 657.08 839.74 653.88 839.76 650.68 839.71 M 714.52 839.75 C 714.51 861.50 714.53 883.25 714.51 905.00 C 714.62 906.95 713.18 908.48 712.41 910.15 C 717.03 910.32 721.67 910.22 726.30 910.26 C 724.71 907.88 723.97 905.12 724.05 902.28 C 723.89 885.17 724.05 868.07 723.99 850.97 C 724.13 847.18 723.56 842.95 726.24 839.86 C 722.33 839.68 718.42 839.75 714.52 839.75 Z" />
<path fill="#ffffff" opacity="1.00" d=" M 814.56 843.49 C 816.12 843.48 817.68 843.49 819.25 843.50 C 819.25 850.58 819.25 857.65 819.25 864.73 C 824.42 864.73 829.59 864.73 834.76 864.73 C 834.75 866.48 834.75 868.23 834.77 870.00 C 829.59 870.00 824.42 869.99 819.25 870.00 C 819.36 881.37 818.97 892.75 819.59 904.11 C 819.66 908.22 824.07 912.69 828.19 910.24 C 833.32 906.34 831.76 899.08 832.00 893.48 C 833.57 893.47 835.15 893.47 836.74 893.48 C 836.78 899.25 837.39 905.66 833.67 910.56 C 828.50 918.09 815.50 916.78 811.39 908.83 C 809.99 906.12 809.43 903.05 809.49 900.03 C 809.50 890.01 809.49 880.01 809.50 870.00 C 806.49 869.99 803.48 869.99 800.48 870.00 C 800.47 868.64 800.47 867.30 800.48 865.96 C 804.37 865.51 808.13 863.58 810.22 860.18 C 813.54 855.31 814.55 849.27 814.56 843.49 Z" />
<path fill="#ffffff" opacity="1.00" d=" M 157.75 869.73 C 159.30 865.99 163.41 864.36 167.07 863.50 C 173.61 862.14 180.79 862.27 186.83 865.40 C 191.31 867.72 195.06 871.92 195.90 877.01 C 196.41 886.65 196.19 896.31 196.27 905.96 C 196.03 908.27 198.59 910.80 200.72 909.00 C 202.73 905.53 201.34 901.29 201.77 897.51 C 203.35 897.49 204.93 897.49 206.51 897.49 C 206.34 900.93 206.95 904.47 206.12 907.84 C 204.49 912.87 198.63 916.19 193.50 914.67 C 190.39 913.75 188.53 910.82 187.49 907.94 C 181.04 916.83 167.22 917.93 158.64 911.59 C 154.50 908.63 152.59 902.90 154.31 898.09 C 156.08 892.98 160.60 889.22 165.53 887.31 C 172.07 884.57 179.21 883.50 186.26 883.42 C 186.65 878.35 186.08 872.40 181.61 869.19 C 177.42 866.06 171.96 867.18 167.15 867.62 C 168.47 869.76 170.26 872.25 169.15 874.90 C 168.24 878.54 163.63 880.37 160.38 878.60 C 157.15 877.09 156.13 872.76 157.75 869.73 M 167.35 894.49 C 163.55 898.39 163.18 905.76 167.80 909.19 C 172.75 913.14 180.58 911.07 183.97 906.05 C 187.90 900.70 185.67 893.69 186.26 887.57 C 179.57 888.12 172.14 889.32 167.35 894.49 Z" />
<path fill="#ffffff" opacity="1.00" d=" M 414.80 863.86 C 424.17 861.37 436.01 862.42 442.31 870.65 C 446.52 875.85 444.98 882.87 445.25 889.03 C 445.51 895.29 444.65 901.67 445.86 907.85 C 446.51 910.24 449.96 910.02 450.56 907.71 C 451.42 904.38 450.84 900.88 451.00 897.50 C 452.57 897.48 454.16 897.49 455.74 897.50 C 455.60 901.06 456.22 904.75 455.17 908.22 C 453.38 913.19 447.35 916.32 442.32 914.52 C 439.40 913.45 437.72 910.68 436.57 907.96 C 429.66 917.72 413.47 918.13 405.58 909.43 C 400.83 903.99 402.81 895.41 408.21 891.19 C 415.85 885.16 426.05 883.64 435.52 883.43 C 435.83 878.57 435.37 872.99 431.31 869.67 C 427.19 865.92 421.24 867.17 416.23 867.64 C 418.65 870.37 419.78 875.03 416.55 877.64 C 413.25 881.09 406.70 878.78 406.28 874.05 C 405.45 868.84 410.16 864.90 414.80 863.86 M 416.50 894.49 C 412.85 898.25 412.35 904.95 416.32 908.68 C 421.02 913.02 429.00 911.52 432.71 906.61 C 437.17 901.28 434.96 893.88 435.52 887.57 C 428.80 888.13 421.31 889.28 416.50 894.49 Z" />
<path fill="#ffffff" opacity="1.00" d=" M 564.56 868.56 C 571.78 861.86 583.55 860.71 591.78 866.23 C 598.33 870.73 600.60 879.28 600.18 886.84 L 599.74 887.60 C 588.82 887.95 577.88 887.64 566.96 887.75 C 567.02 893.63 567.19 900.13 570.98 904.99 C 574.71 909.96 581.67 911.90 587.53 910.19 C 592.12 908.31 594.63 903.62 596.13 899.16 C 597.60 899.25 599.09 899.39 600.56 899.59 C 598.71 907.80 591.69 915.15 582.97 915.51 C 572.36 916.41 561.90 909.68 557.89 899.91 C 553.26 889.48 555.82 876.08 564.56 868.56 M 572.16 870.14 C 568.43 873.48 567.45 878.70 567.11 883.47 C 575.03 883.51 582.95 883.52 590.87 883.47 C 590.24 878.31 589.57 872.23 585.00 868.96 C 581.23 865.89 575.44 866.76 572.16 870.14 Z" />
<path fill="#ffffff" opacity="1.00" d=" M 753.87 864.92 C 760.64 862.10 768.58 861.90 775.50 864.36 C 781.71 866.49 787.04 872.18 787.13 879.00 C 787.43 887.70 787.13 896.41 787.27 905.12 C 787.29 906.68 787.59 908.53 789.10 909.40 C 790.51 910.08 792.22 908.99 792.49 907.52 C 793.33 904.24 792.90 900.82 793.00 897.48 C 794.58 897.48 796.16 897.50 797.75 897.54 C 797.44 902.15 798.65 907.63 795.19 911.37 C 792.18 914.78 786.50 916.39 782.57 913.66 C 780.45 912.39 779.48 910.04 778.50 907.93 C 772.31 916.71 758.87 917.82 750.30 912.02 C 745.59 909.03 743.40 902.60 745.58 897.42 C 747.44 892.94 751.40 889.51 755.81 887.65 C 762.61 884.58 770.14 883.51 777.54 883.41 C 777.67 878.33 777.13 872.34 772.60 869.16 C 768.39 866.06 762.93 867.20 758.11 867.63 C 759.89 869.88 761.47 872.97 759.86 875.78 C 758.02 880.23 750.95 880.44 748.83 876.13 C 746.56 871.82 749.58 866.52 753.87 864.92 M 758.39 894.47 C 754.77 898.24 754.21 905.07 758.30 908.72 C 762.77 912.91 770.37 911.58 774.19 907.14 C 778.99 901.85 777.03 894.10 777.38 887.61 C 770.67 888.10 763.22 889.32 758.39 894.47 Z" />
<path fill="#ffffff" opacity="1.00" d=" M 918.06 865.20 C 924.79 862.11 933.15 861.54 939.71 865.39 C 941.43 863.92 943.22 862.21 945.69 862.75 C 945.79 868.24 945.75 873.74 945.72 879.24 C 944.21 879.45 942.70 879.46 941.21 879.36 C 940.97 876.03 940.64 872.33 938.07 869.89 C 933.81 866.00 927.08 865.90 922.01 868.09 C 917.55 870.05 917.16 877.14 921.43 879.54 C 928.10 883.30 936.90 881.70 942.79 887.20 C 951.12 893.43 950.25 908.04 941.06 913.02 C 933.83 916.63 924.29 916.69 917.81 911.45 C 915.75 913.29 914.00 916.00 910.87 915.64 C 910.71 909.00 910.55 902.34 911.07 895.71 C 912.44 895.60 913.82 895.53 915.21 895.53 C 916.45 899.88 917.42 904.73 920.90 907.94 C 924.96 911.70 931.21 912.05 936.20 910.15 C 941.49 908.10 942.77 900.12 938.53 896.44 C 934.94 893.05 929.69 893.08 925.17 891.91 C 919.64 890.85 914.08 887.68 911.81 882.31 C 909.16 876.15 911.87 868.08 918.06 865.20 Z" />
<path fill="#ffffff" opacity="1.00" d=" M 210.30 864.60 C 216.29 864.27 222.26 863.78 228.24 863.41 C 228.26 866.37 228.27 869.33 228.19 872.30 C 232.01 866.86 238.29 863.20 245.05 863.45 C 251.31 862.95 258.22 866.10 260.00 872.54 C 265.19 864.05 276.84 861.07 285.73 865.16 C 289.90 867.10 292.13 871.66 292.45 876.08 C 293.10 886.77 292.51 897.50 292.83 908.20 C 295.68 908.88 298.62 908.96 301.53 909.07 C 301.52 910.81 301.51 912.56 301.51 914.32 C 292.34 913.82 283.15 913.84 273.98 914.32 C 273.98 912.54 273.98 910.78 273.98 909.03 C 276.91 909.05 279.89 909.01 282.71 908.11 C 282.78 897.41 282.76 886.70 282.73 876.01 C 282.65 872.15 280.10 867.68 275.73 867.95 C 267.39 866.81 260.70 875.31 260.90 883.11 C 260.70 891.43 260.54 899.78 261.03 908.10 C 263.83 909.12 266.82 909.04 269.76 909.02 C 269.75 910.77 269.74 912.54 269.74 914.32 C 260.51 913.82 251.24 913.84 242.01 914.32 C 242.00 912.54 242.00 910.78 242.00 909.03 C 244.90 908.77 248.26 909.55 250.79 907.79 C 251.19 897.53 251.04 887.22 250.84 876.96 C 251.09 872.87 248.65 867.82 243.97 867.97 C 235.63 866.72 228.96 875.16 229.00 882.92 C 229.11 891.20 228.75 899.50 229.19 907.76 C 231.70 909.62 235.09 908.78 238.00 909.02 C 238.00 910.77 237.99 912.54 237.99 914.32 C 228.75 913.84 219.48 913.82 210.24 914.32 C 210.24 912.55 210.23 910.78 210.23 909.02 C 213.15 909.04 216.12 909.09 218.92 908.11 C 219.07 898.42 219.22 888.75 219.01 879.06 C 218.75 876.44 219.80 873.30 217.82 871.18 C 215.52 869.85 212.72 870.19 210.18 869.88 C 210.22 868.11 210.25 866.35 210.30 864.60 Z" />
<path fill="#ffffff" opacity="1.00" d=" M 306.00 864.64 C 311.99 864.24 317.98 863.80 323.98 863.41 C 324.00 866.39 324.00 869.37 323.99 872.36 C 327.93 866.48 334.89 862.91 341.99 863.45 C 347.94 863.18 354.08 866.58 355.81 872.51 C 359.09 867.78 364.16 864.08 370.02 863.56 C 374.63 863.22 379.75 863.45 383.55 866.42 C 387.32 869.38 388.47 874.42 388.51 879.00 C 388.50 887.67 388.50 896.34 388.49 905.01 C 388.55 906.35 388.23 908.46 390.14 908.56 C 392.57 908.97 395.05 908.93 397.52 909.06 C 397.50 910.81 397.49 912.56 397.49 914.32 C 388.26 913.83 378.99 913.83 369.75 914.32 C 369.75 912.55 369.74 910.79 369.74 909.04 C 372.60 908.70 376.08 909.68 378.45 907.67 C 379.04 899.86 378.67 891.97 378.65 884.14 C 378.11 879.74 379.44 874.93 377.06 870.93 C 374.95 867.31 370.06 867.56 366.52 868.37 C 361.27 870.29 357.52 875.53 356.85 881.03 C 356.52 889.87 356.50 898.71 356.81 907.56 C 359.00 909.82 362.71 908.65 365.52 909.03 C 365.51 910.79 365.51 912.54 365.51 914.32 C 356.27 913.83 346.99 913.83 337.75 914.32 C 337.75 912.55 337.74 910.79 337.74 909.04 C 340.67 908.80 343.98 909.47 346.60 907.84 C 346.94 897.55 346.66 887.24 346.75 876.94 C 346.91 872.91 344.60 867.94 339.98 867.97 C 331.58 866.61 324.87 875.08 324.79 882.87 C 324.80 891.15 324.54 899.45 324.93 907.72 C 327.45 909.60 330.83 908.81 333.76 909.02 C 333.75 910.77 333.74 912.54 333.74 914.32 C 324.51 913.83 315.24 913.84 306.01 914.32 C 306.00 912.54 306.00 910.77 306.00 909.02 C 308.90 909.04 311.87 909.11 314.66 908.13 C 315.17 896.48 315.23 884.77 314.63 873.12 C 313.82 869.32 308.85 870.39 306.00 869.92 C 306.00 868.15 305.99 866.39 306.00 864.64 Z" />
</g>
<g id="#fe3a3bff">
<path fill="#fe3a3b" opacity="1.00" d=" M 357.54 199.63 C 355.37 193.13 360.07 185.20 366.94 184.37 C 371.34 183.64 375.46 185.64 379.03 187.97 C 434.90 222.81 491.23 256.92 546.94 292.02 C 513.56 299.91 482.65 319.77 463.50 348.48 C 441.62 379.84 434.98 420.61 443.40 457.68 C 399.24 430.85 355.46 403.40 311.38 376.43 C 308.04 374.24 304.14 372.10 302.62 368.16 C 300.19 362.23 303.29 354.66 309.26 352.29 C 313.72 350.82 318.71 351.83 322.59 354.35 C 348.44 370.57 374.50 386.44 400.33 402.68 C 407.56 407.35 418.54 405.67 423.24 398.20 C 428.52 391.06 426.04 380.00 418.66 375.30 C 362.53 340.42 306.35 305.61 250.18 270.78 C 242.87 266.27 243.24 253.87 250.57 249.57 C 255.24 247.07 261.14 247.78 265.55 250.53 C 311.68 279.06 357.75 307.70 403.94 336.13 C 407.06 338.00 410.12 340.42 413.90 340.66 C 422.15 341.46 430.28 335.17 431.77 327.05 C 433.04 321.22 429.88 315.20 425.23 311.79 C 417.21 305.94 408.21 301.64 400.13 295.90 C 393.41 292.13 392.94 281.49 398.87 276.81 C 401.71 274.80 405.51 273.86 408.90 274.96 C 412.04 275.90 414.77 277.77 417.54 279.47 C 433.54 289.46 449.52 299.49 465.71 309.18 C 473.25 313.48 483.57 310.38 487.85 302.93 C 492.23 295.90 490.01 285.54 482.92 281.13 C 444.37 256.96 405.66 233.06 367.02 209.04 C 363.33 206.58 358.72 204.28 357.54 199.63 Z" />
<path fill="#fe3a3b" opacity="1.00" d=" M 363.45 251.58 C 370.88 248.27 380.62 254.81 379.74 263.06 C 379.64 271.57 368.66 277.30 361.70 272.32 C 353.99 267.84 355.15 254.71 363.45 251.58 Z" />
</g>
</svg>
