<svg id="Capa_1" enable-background="new 0 0 510.691 510.691" height="512" viewBox="0 0 510.691 510.691" width="512" xmlns="http://www.w3.org/2000/svg"><g><path d="m350.855 227.256c1.516-3.855-.38-8.209-4.235-9.725l-64.301-25.288c-15.285-6.011-32.174-6.153-47.559-.4l-69.255 25.901c-3.879 1.451-5.848 5.772-4.397 9.652 1.127 3.014 3.987 4.875 7.026 4.875.873 0 1.761-.153 2.626-.477l69.254-25.901c11.909-4.454 24.982-4.344 36.814.31l64.301 25.288c3.855 1.515 8.21-.381 9.726-4.235zm159.762-66.845c-1.081-33.549-12.617-44.592-19.399-48.188-20.956-11.112-52.337 15.917-69 32.806-.568-.298-1.149-.577-1.757-.816l-137.937-54.247c-14.334-5.638-30.172-5.771-44.599-.375l-39.974 14.95c-3.88 1.451-5.849 5.772-4.398 9.652 1.451 3.881 5.772 5.85 9.652 4.398l39.974-14.95c10.952-4.095 22.974-3.994 33.854.285l137.938 54.248c.962.378 1.584 1.292 1.584 2.326v39.634c0 4.142 3.358 7.5 7.5 7.5s7.5-3.358 7.5-7.5v-39.634c0-1.106-.113-2.188-.309-3.243 22.344-23.117 44.264-36.384 52.943-31.78 5.212 2.764 10.77 14.788 11.434 35.419 1.318 40.938-16.519 94.19-53.158 116.756-3.388 2.083-7.138 4.056-10.978 5.8.092-2.219.068-45.906.068-48.317 0-4.142-3.358-7.5-7.5-7.5s-7.5 3.358-7.5 7.5v45.819c.003 16.444-7.173 32.266-19.745 43.107l-68.553 59.135c-20.078 17.32-45.738 26.858-72.254 26.858s-52.176-9.539-72.254-26.858l-68.553-59.135c-12.607-10.863-19.744-26.631-19.745-43.107v-120.33c0-.374.087-.734.241-1.06.015-.032.034-.064.049-.096.281-.534.747-.965 1.333-1.185l73.3-27.413c3.879-1.451 5.848-5.772 4.397-9.652-1.451-3.881-5.771-5.847-9.652-4.398l-73.298 27.413c-.988.37-1.923.833-2.81 1.363-6.658-6.76-17-16.486-28.185-24.107-17.082-11.638-30.996-14.756-41.359-9.264-6.78 3.597-18.314 14.642-19.393 48.198-1.528 47.529 20.03 105.234 60.288 130.005 6.979 4.294 15.172 8.121 23.024 10.805 3.859 13.138 11.415 25.045 22.011 34.185l68.553 59.135c22.801 19.668 51.941 30.5 82.052 30.5s59.251-10.832 82.052-30.5l68.553-59.135c10.734-9.259 18.355-21.354 22.167-34.695 7.38-2.652 15.042-6.295 21.551-10.297 39.949-24.561 61.819-82.594 60.292-130.015zm-430.081 123.628c-4.291-1.875-8.507-4.047-12.308-6.385-36.637-22.565-54.475-75.813-53.159-116.75.664-20.637 6.219-32.664 11.428-35.427 8.917-4.728 31.354 9.052 54.104 32.978-.09.714-.149 1.436-.149 2.168 0 2.677-.021 120.911.084 123.416zm231.519-6.952c-7.084 6.12-26.577 20.406-54.516 20.906-29.472.547-50.101-14.445-57.587-20.908-3.135-2.707-7.871-2.359-10.578.776s-2.359 7.871.776 10.578c9.411 8.124 33.776 25.158 67.657 24.551 32.838-.588 55.733-17.366 64.053-24.553 3.134-2.708 3.48-7.444.773-10.579-2.708-3.132-7.444-3.478-10.578-.771zm58.365-91.589c1.516-3.855-.38-8.209-4.234-9.725l-78.619-30.918c-18.303-7.199-38.529-7.368-56.951-.479l-84.676 31.667c-3.879 1.451-5.848 5.772-4.397 9.652 1.127 3.015 3.987 4.875 7.026 4.875.873 0 1.761-.153 2.626-.477l84.675-31.667c14.947-5.59 31.357-5.453 46.207.388l78.619 30.918c3.855 1.517 8.209-.38 9.724-4.234zm-214.098 131.198c-2.707 3.136-2.359 7.872.776 10.578 14.239 12.292 50.655 37.789 101.615 36.876 49.313-.883 83.703-26.084 96.199-36.878 3.135-2.708 3.481-7.444.773-10.578-2.707-3.135-7.444-3.48-10.578-.773-11.261 9.727-42.249 32.437-86.663 33.231-46.908.87-79.645-22.961-91.544-33.233-3.137-2.707-7.872-2.358-10.578.777z"/></g></svg>