<svg id="Capa_1" enable-background="new 0 0 512 512" height="512" viewBox="0 0 512 512" width="512" xmlns="http://www.w3.org/2000/svg"><g><path d="m337.894 367.844h-163.998c-28.521 0-51.642-23.121-51.642-51.642v-182.56c0-73.809 59.833-133.642 133.641-133.642 73.808 0 133.641 59.833 133.641 133.641v182.56c0 28.522-23.121 51.643-51.642 51.643z" fill="#e19974"/><path d="m255.895 0c-5.149 0-10.226.302-15.223.868 66.638 7.558 118.418 64.114 118.418 132.773v182.56c0 28.521-23.121 51.643-51.642 51.643h30.446c28.521 0 51.642-23.121 51.642-51.643v-182.56c0-73.808-59.833-133.641-133.641-133.641z" fill="#dc8758"/><g><path d="m473.742 501.851v-54.644c0-31.681-20.328-59.787-50.416-69.706l-86.54-28.53-28.437-4.356c-10.029-3.306-16.805-12.675-16.805-23.235v-46.051h-71.085v46.051c0 10.56-6.776 19.929-16.805 23.235l-28.437 4.356-86.54 28.53c-30.088 9.919-50.416 38.025-50.416 69.706v54.644c0 5.605 4.544 10.149 10.149 10.149h415.186c5.602 0 10.146-4.544 10.146-10.149z" fill="#aee69c"/><g><path d="m423.326 377.501-86.54-28.53-28.437-4.356c-10.029-3.306-16.806-12.675-16.806-23.235v-46.051l-15.223 15.223v46.051c0 10.56 6.776 19.929 16.806 23.235l99.754 32.886c30.088 9.919 50.416 38.025 50.416 69.706v49.57h20.297c5.605 0 10.149-4.544 10.149-10.149v-54.644c0-31.681-20.328-59.787-50.416-69.706z" fill="#89daa4"/></g><path d="m256 392.753c33.826 0 63.578-17.424 80.785-43.782l-28.437-4.356c-10.029-3.306-16.806-12.675-16.806-23.235v-46.051h-86.308v46.051c0 10.56-6.776 19.929-16.806 23.235l-13.214 4.356c17.208 26.359 46.96 43.782 80.786 43.782z" fill="#ffcebf"/><path d="m276.32 290.552v46.051c0 10.56 6.776 19.929 16.806 23.235l26.658 8.788c6.508-5.748 12.238-12.357 17.002-19.655l-13.214-4.356c-10.029-3.306-16.806-12.675-16.806-23.235v-46.051z" fill="#ffb09e"/><g><path d="m149.739 176.587h24.988v-54.971h-24.988c-15.18 0-27.485 12.306-27.485 27.485 0 15.18 12.306 27.486 27.485 27.486z" fill="#ffb09e"/><path d="m348.538 121.261c2.118.156 3.748 1.922 3.748 4.046v90.944c0 53.365-43.551 81.357-97.122 80.96-53.148-.393-95.66-29.131-95.66-82.167v-88.96c0-2.434 2.122-4.314 4.54-4.03 16.686 1.962 42.883 2.669 72.712-6.549 18.834-5.821 33.81-13.959 44.775-21.198 2.763-1.824 6.421-1.482 8.797.825 5.515 5.354 13.58 11.864 24.484 17.121 13.236 6.381 25.423 8.396 33.726 9.008z" fill="#ffcebf"/><path d="m362.051 176.587h-24.988v-54.971h24.988c15.18 0 27.485 12.306 27.485 27.485 0 15.18-12.306 27.486-27.485 27.486z" fill="#ffcebf"/><g><path d="m321.84 216.251c0 47.94-35.149 87.681-81.133 94.979 4.711.756 9.538 1.167 14.457 1.204 53.571.396 97.122-42.818 97.122-96.183v-90.945c0-2.124-1.63-3.89-3.748-4.046-6.789-.5-16.173-1.938-26.604-5.934z" fill="#ffb09e"/></g><path d="m312.338 294.937-40.778 23.587c-9.689 5.604-21.643 5.604-31.331 0l-40.778-23.587c-24.726-14.303-39.948-40.664-39.948-69.183v-9.963c11.056-8.342 27.542-18.868 49.363-26.732 18.576-6.694 35.24-9.376 47.846-10.439 13.115 1.12 31.472 4.118 51.964 12.297 19.061 7.607 33.599 17.155 43.608 24.874v9.963c.002 28.519-15.219 54.88-39.946 69.183z" fill="#eaf6ff"/><path d="m321.84 225.754c0 28.519-15.221 54.88-39.947 69.183l-40.778 23.587c-.145.084-.296.155-.443.237 9.609 5.354 21.346 5.283 30.889-.237l40.778-23.587c24.726-14.303 39.947-40.664 39.947-69.183 0-8.395 0-1.568 0-9.964-7.507-5.789-17.561-12.607-30.161-18.863-.191 7.504-.285 21.636-.285 28.827z" fill="#d8ecfe"/></g><g><g><path d="m309.28 169.308c-4.204 0-7.611-3.407-7.611-7.611v-15.586c0-4.204 3.407-7.611 7.611-7.611s7.612 3.407 7.612 7.611v15.586c0 4.204-3.407 7.611-7.612 7.611z" fill="#3d6d93"/></g><g><path d="m202.72 169.308c-4.204 0-7.611-3.407-7.611-7.611v-15.586c0-4.204 3.407-7.611 7.611-7.611s7.611 3.407 7.611 7.611v15.586c0 4.204-3.407 7.611-7.611 7.611z" fill="#3d6d93"/></g></g><g><path d="m397.626 512c-4.204 0-7.611-3.407-7.611-7.612v-39.765c0-4.204 3.407-7.611 7.611-7.611s7.612 3.407 7.612 7.611v39.765c0 4.205-3.407 7.612-7.612 7.612z" fill="#89daa4"/></g><g><path d="m114.374 512c-4.204 0-7.611-3.407-7.611-7.612v-39.765c0-4.204 3.407-7.611 7.611-7.611s7.611 3.407 7.611 7.611v39.765c0 4.205-3.407 7.612-7.611 7.612z" fill="#89daa4"/></g></g></g></svg>