<?xml version="1.0" standalone="no"?>
<!DOCTYPE svg PUBLIC "-//W3C//DTD SVG 20010904//EN"
 "http://www.w3.org/TR/2001/REC-SVG-20010904/DTD/svg10.dtd">
<svg version="1.0" xmlns="http://www.w3.org/2000/svg"
 width="512.000000pt" height="512.000000pt" viewBox="0 0 512.000000 512.000000"
 preserveAspectRatio="xMidYMid meet">

<g transform="translate(0.000000,512.000000) scale(0.100000,-0.100000)"
fill="#000000" stroke="none">
<path d="M2380 5110 c-98 -14 -249 -55 -343 -92 -89 -36 -224 -110 -257 -140
-30 -28 -27 -81 6 -107 36 -28 59 -26 113 8 73 47 230 118 311 141 300 84 606
59 877 -70 355 -169 608 -488 688 -870 23 -107 22 -112 -17 -96 -40 17 -144
33 -261 41 -209 15 -355 78 -556 242 -28 23 -44 28 -90 28 -49 0 -65 -6 -126
-44 -152 -96 -337 -169 -535 -213 -97 -21 -128 -23 -425 -23 -313 0 -351 -3
-407 -32 -27 -13 -28 -13 -28 15 0 44 44 208 80 298 37 95 122 239 184 314 53
63 60 106 24 140 -36 33 -75 26 -120 -22 -127 -137 -242 -370 -301 -607 -21
-84 -21 -105 -24 -1123 -3 -901 -2 -1045 12 -1103 16 -71 51 -147 98 -212 17
-24 28 -45 26 -47 -2 -2 -104 -36 -227 -76 -300 -96 -381 -138 -498 -254 -97
-97 -159 -189 -194 -291 -44 -125 -50 -189 -50 -536 l0 -330 25 -24 c31 -32
69 -32 100 0 l25 24 0 328 c0 376 6 420 71 552 50 100 160 218 254 271 35 20
232 91 489 176 l429 141 48 -57 c48 -58 120 -123 198 -179 56 -40 101 -42 130
-5 37 46 22 84 -51 134 -28 19 -78 61 -111 94 l-60 59 51 23 c65 29 131 90
162 151 20 38 26 67 28 141 2 50 7 92 10 92 3 0 66 -34 140 -77 243 -139 318
-139 567 3 72 41 134 74 138 74 4 0 7 -35 7 -78 0 -46 7 -98 16 -125 22 -66
93 -141 167 -176 l61 -29 -60 -59 c-192 -188 -479 -284 -731 -244 -84 13 -115
4 -133 -40 -9 -21 -9 -34 2 -56 22 -46 71 -57 248 -57 135 1 167 4 252 27 211
56 399 173 528 328 l47 57 430 -142 c253 -84 454 -156 489 -176 93 -53 204
-171 253 -271 65 -132 71 -176 71 -552 l0 -328 25 -24 c13 -14 36 -25 50 -25
14 0 37 11 50 25 l25 24 0 330 c0 361 -6 421 -58 553 -41 106 -109 203 -204
293 -105 99 -211 151 -495 242 -117 37 -213 71 -213 74 0 4 20 36 45 73 25 37
55 100 67 139 l23 72 0 1040 c0 965 -1 1046 -18 1124 -63 293 -185 520 -387
721 -202 203 -440 330 -721 385 -99 19 -346 28 -439 15z m517 -1100 c109 -95
249 -167 401 -206 52 -13 103 -24 113 -24 18 0 19 -15 19 -356 l0 -355 -62 36
c-161 94 -373 178 -568 226 -133 32 -336 32 -465 1 -172 -42 -311 -93 -475
-175 -91 -45 -168 -83 -172 -85 -5 -2 -8 151 -8 341 l0 345 218 5 c245 6 333
20 535 87 117 39 301 125 373 174 21 14 40 26 42 26 2 0 24 -18 49 -40z
m-1367 -435 l0 -195 -28 0 c-41 0 -112 40 -146 82 -34 43 -46 123 -27 180 21
63 106 128 169 128 l32 0 0 -195z m2159 175 c108 -55 142 -186 74 -284 -32
-47 -101 -86 -150 -86 l-33 0 0 195 0 195 35 0 c20 0 53 -9 74 -20z m-2218
-516 l59 -7 0 -201 c0 -325 21 -444 106 -605 73 -138 173 -248 299 -328 l45
-28 0 -120 c0 -130 -11 -166 -63 -200 -14 -9 -117 -46 -229 -84 -151 -51 -209
-66 -222 -59 -34 19 -106 130 -126 195 -19 63 -20 92 -20 778 l0 712 46 -23
c25 -13 72 -26 105 -30z m2319 -1394 c-15 -70 -61 -156 -110 -208 l-39 -41
-207 69 c-114 38 -217 76 -231 85 -52 34 -63 70 -63 200 l0 121 63 41 c86 57
206 185 261 280 26 43 61 121 78 173 l32 95 4 288 4 287 32 0 c39 0 133 27
161 46 20 14 20 14 23 -683 2 -501 0 -714 -8 -753z m-1029 1340 c200 -41 426
-134 590 -242 l79 -52 0 -81 c0 -181 -72 -348 -210 -485 -77 -77 -107 -98
-318 -219 -251 -144 -286 -160 -347 -160 -53 -1 -90 17 -350 167 -201 116
-228 135 -310 217 -74 74 -98 106 -132 175 -47 97 -69 179 -78 296 l-7 81 69
45 c205 136 422 222 678 269 114 21 190 19 336 -11z"/>
<path d="M1985 3655 c-23 -22 -25 -31 -25 -123 0 -85 3 -103 21 -126 15 -19
30 -26 54 -26 24 0 39 7 54 26 18 23 21 41 21 126 0 92 -2 101 -25 123 -13 14
-36 25 -50 25 -14 0 -37 -11 -50 -25z"/>
<path d="M3035 3655 c-23 -22 -25 -31 -25 -123 0 -85 3 -103 21 -126 15 -19
30 -26 54 -26 24 0 39 7 54 26 18 23 21 41 21 126 0 92 -2 101 -25 123 -13 14
-36 25 -50 25 -14 0 -37 -11 -50 -25z"/>
<path d="M1111 514 c-20 -25 -21 -39 -21 -246 l0 -219 25 -24 c13 -14 36 -25
50 -25 14 0 37 11 50 25 l25 24 0 219 c0 207 -1 221 -21 246 -15 19 -30 26
-54 26 -24 0 -39 -7 -54 -26z"/>
<path d="M3901 514 c-20 -25 -21 -39 -21 -246 l0 -219 25 -24 c31 -32 69 -32
100 0 l25 24 0 219 c0 207 -1 221 -21 246 -15 19 -30 26 -54 26 -24 0 -39 -7
-54 -26z"/>
</g>
</svg>
