<?xml version="1.0" standalone="no"?>
<!DOCTYPE svg PUBLIC "-//W3C//DTD SVG 20010904//EN"
 "http://www.w3.org/TR/2001/REC-SVG-20010904/DTD/svg10.dtd">
<svg version="1.0" xmlns="http://www.w3.org/2000/svg"
 width="1000.000000pt" height="218.000000pt" viewBox="0 0 1000.000000 218.000000"
 preserveAspectRatio="xMidYMid meet">

<g transform="translate(0.000000,218.000000) scale(0.100000,-0.100000)"
fill="#000000" stroke="none">
<path d="M1845 2150 c-244 -52 -437 -128 -985 -388 -376 -178 -495 -223 -734
-277 -59 -13 -111 -26 -113 -29 -8 -7 55 -189 107 -311 329 -768 813 -1172
1370 -1142 567 31 976 402 1097 994 14 68 18 136 18 296 l0 208 35 8 c19 5
116 28 214 52 118 27 173 44 160 49 -10 4 -121 31 -246 60 l-227 53 -21 56
c-61 161 -166 288 -287 348 -71 35 -80 37 -186 40 -82 2 -137 -3 -202 -17z
m225 -285 c58 -30 77 -112 41 -171 -73 -119 -250 2 -186 126 28 54 90 73 145
45z m-659 -396 c70 -50 108 -172 89 -281 -22 -121 -94 -213 -208 -266 -51 -24
-69 -27 -167 -27 -101 0 -115 2 -170 29 -86 42 -198 158 -252 262 -58 110 -57
113 15 102 115 -19 193 2 312 82 71 48 190 108 238 120 50 12 109 4 143 -21z"/>
<path d="M7695 1774 c-249 -39 -427 -213 -503 -492 -24 -90 -26 -112 -26 -307
0 -185 2 -220 22 -300 64 -254 213 -410 438 -461 60 -13 108 -15 227 -11 187
6 271 26 417 99 l105 53 -1 40 c0 44 -41 141 -76 184 l-23 27 -69 -28 c-82
-34 -199 -64 -281 -73 -76 -8 -185 10 -227 39 -73 48 -120 142 -135 263 l-6
53 419 2 418 3 8 35 c4 19 12 80 17 136 34 373 -127 640 -434 719 -61 16 -235
27 -290 19z m221 -303 c80 -37 126 -123 140 -263 l7 -68 -253 0 -253 0 6 63
c12 128 65 229 139 266 56 27 156 28 214 2z"/>
<path d="M3865 1754 c-71 -18 -115 -37 -115 -51 0 -25 299 -1305 315 -1349 41
-111 143 -144 398 -129 68 4 129 10 136 15 14 8 101 459 172 885 23 138 44
252 46 254 9 11 17 -30 68 -335 84 -506 121 -700 142 -736 11 -20 38 -43 68
-58 48 -24 58 -25 225 -24 96 0 186 3 200 7 24 6 31 31 206 737 200 809 192
749 111 771 -39 10 -290 10 -300 -1 -9 -9 -166 -744 -209 -978 -23 -127 -45
-232 -50 -232 -11 0 -9 -12 -121 620 l-102 574 -40 9 c-45 9 -410 6 -420 -4
-3 -4 -51 -265 -106 -580 -55 -316 -102 -585 -105 -598 -10 -47 -24 -4 -54
165 -58 338 -182 918 -204 958 -35 65 -65 81 -159 83 -45 1 -91 -1 -102 -3z"/>
<path d="M6150 1723 c-18 -20 -46 -65 -62 -100 l-30 -63 27 -31 c37 -44 61
-95 74 -157 7 -35 11 -231 11 -592 l0 -540 28 -7 c36 -10 309 -10 345 0 l27 7
0 483 c0 535 -5 491 69 570 75 80 167 105 307 84 l51 -7 26 57 c31 69 53 155
62 240 7 60 6 63 -17 72 -12 5 -59 12 -103 15 -185 16 -325 -53 -412 -203
l-31 -54 -22 44 c-52 102 -128 168 -232 201 -33 10 -66 18 -73 18 -7 0 -28
-17 -45 -37z"/>
<path d="M9385 1746 c-81 -23 -135 -50 -223 -110 -45 -31 -85 -56 -87 -56 -3
0 -5 8 -5 18 0 10 -14 40 -30 66 -45 71 -90 87 -227 84 l-108 -3 0 -755 0
-755 93 -9 c55 -5 133 -5 190 0 l97 9 3 517 2 517 43 36 c136 117 333 139 382
44 28 -53 35 -165 35 -574 l0 -410 24 -52 c35 -75 65 -88 197 -88 98 0 110 2
165 31 67 34 68 37 33 129 -23 59 -23 72 -29 540 -7 527 -7 523 -72 648 -38
70 -92 121 -167 155 -46 21 -74 26 -161 29 -69 2 -122 -2 -155 -11z"/>
</g>
</svg>
